<svg xmlns="http://www.w3.org/2000/svg" version="1.1" xmlns:xlink="http://www.w3.org/1999/xlink" width="200" height="200"><svg xmlns="http://www.w3.org/2000/svg" version="1.1" xmlns:xlink="http://www.w3.org/1999/xlink" viewBox="0 0 200 200"><rect width="200" height="200" fill="url('#gradient')"></rect><defs><linearGradient id="SvgjsLinearGradient1001" gradientTransform="rotate(53 0.5 0.5)"><stop offset="0%" stop-color="#273239"></stop><stop offset="100%" stop-color="#384349"></stop></linearGradient></defs><g><g fill="#ffffff" transform="matrix(7.833404164895877,0,0,7.833404164895877,7.2516757762538475,154.91388025154117)" stroke="#c8512e" stroke-width="0.1"><path d="M6.74-4.46L6.74-14.22L10.16-14.22L10.16-4.46Q10.16-3.11 9.53-2.04Q8.90-0.98 7.77-0.39Q6.64 0.20 5.25 0.20L5.25 0.20Q2.93 0.20 1.64-0.98Q0.35-2.15 0.35-4.30L0.35-4.30L3.79-4.30Q3.79-3.32 4.13-2.88Q4.46-2.44 5.25-2.44L5.25-2.44Q5.97-2.44 6.35-2.97Q6.74-3.51 6.74-4.46L6.74-4.46ZM18.09 0L12.31 0L12.31-14.22L17.42-14.22Q20.17-14.22 21.60-13.21Q23.03-12.21 23.03-10.29L23.03-10.29Q23.03-9.19 22.52-8.41Q22.01-7.63 21.03-7.26L21.03-7.26Q22.14-6.96 22.73-6.16Q23.33-5.36 23.33-4.21L23.33-4.21Q23.33-2.12 22.01-1.07Q20.68-0.02 18.09 0L18.09 0ZM18.14-6.04L15.74-6.04L15.74-2.64L17.99-2.64Q18.92-2.64 19.41-3.06Q19.91-3.49 19.91-4.26L19.91-4.26Q19.91-6.04 18.14-6.04L18.14-6.04ZM15.74-11.57L15.74-8.29L17.53-8.29Q18.65-8.30 19.13-8.70Q19.61-9.10 19.61-9.88L19.61-9.88Q19.61-10.78 19.09-11.18Q18.57-11.57 17.42-11.57L17.42-11.57L15.74-11.57Z"></path></g></g></svg><style>@media (prefers-color-scheme: light) { :root { filter: none; } }
@media (prefers-color-scheme: dark) { :root { filter: none; } }
</style></svg>